v 0.000000 1.000000 -0.000000
v 0.382683 0.923880 -0.000000
v 0.707107 0.707107 -0.000000
v 0.923880 0.382683 -0.000000
v 1.000000 -0.000000 0.000000
v 0.000000 0.000000 2.000000
v 0.923880 -0.382684 0.000000
v 0.707107 -0.707107 0.000000
v 0.382683 -0.923880 0.000000
v 0.000000 -1.000000 0.000000
v -0.382683 -0.923880 0.000000
v -0.707107 -0.707107 0.000000
v -0.923880 -0.382684 0.000000
v -1.000000 0.000000 -0.000000
v -0.923879 0.382684 -0.000000
v -0.707107 0.707107 -0.000000
v -0.382683 0.923880 -0.000000

vn 0 0.894427 0.447214
vn 0.342282 0.826343 0.447214
vn 0.632456 0.632456 0.447214
vn 0.826343 0.342282 0.447214
vn 0.894427 0 0.447214
vn 0 0 1
vn 0.826343 -0.342282 0.447214
vn 0.632456 -0.632456 0.447214
vn 0.342282 -0.826343 0.447214
vn 0 -0.894427 0.447214
vn -0.342282 -0.826343 0.447214
vn -0.632456 -0.632456 0.447214
vn -0.826343 -0.342282 0.447214
vn -0.894427 0 0.447214
vn -0.826343 0.342282 0.447214
vn -0.632456 0.632456 0.447214
vn -0.342282 0.826343 0.447214
vn 0 0.894427 0.447214

f 1//1 6//1 2//2
f 2//2 6//2 3//3
f 3//3 6//3 4//4
f 4//4 6//4 5//5
f 5//5 6//5 7//7
f 7//7 6//7 8//8
f 8//8 6//8 9//9
f 9//9 6//9 10//10
f 10//10 6//10 11//11
f 11//11 6//11 12//12
f 12//12 6//12 13//13
f 13//13 6//13 14//14
f 14//14 6//14 15//15
f 15//15 6//15 16//16
f 16//16 6//16 17//17
f 17//17 6//17 1//1
