v -0.195090 0.000000 0.980785
v -0.382683 0.000000 0.923880
v -0.555570 0.000000 0.831470
v -0.707107 0.000000 0.707107
v -0.831470 0.000000 0.555570
v -0.923880 0.000000 0.382683
v -0.980785 0.000000 0.195090
v -1.000000 0.000000 0.000000
v -0.980785 -0.000000 -0.195090
v -0.923880 -0.000000 -0.382683
v -0.831470 -0.000000 -0.555570
v -0.707107 -0.000000 -0.707107
v -0.555570 -0.000000 -0.831470
v -0.382683 -0.000000 -0.923880
v -0.195090 -0.000000 -0.980785
v -0.180240 0.074658 0.980785
v -0.353553 0.146447 0.923880
v -0.513280 0.212608 0.831470
v -0.653281 0.270598 0.707107
v -0.768178 0.318190 0.555570
v -0.853553 0.353554 0.382683
v -0.906127 0.375330 0.195090
v -0.923880 0.382684 0.000000
v -0.906127 0.375330 -0.195090
v -0.853553 0.353553 -0.382683
v -0.768178 0.318190 -0.555570
v -0.653281 0.270598 -0.707107
v -0.513280 0.212608 -0.831470
v -0.353553 0.146447 -0.923880
v -0.180240 0.074658 -0.980785
v 0.000000 -0.000000 -1.000000
v -0.137950 0.137950 0.980785
v -0.270598 0.270598 0.923880
v -0.392847 0.392848 0.831470
v -0.500000 0.500000 0.707107
v -0.587938 0.587938 0.555570
v -0.653281 0.653282 0.382683
v -0.693520 0.693520 0.195090
v -0.707107 0.707107 0.000000
v -0.693520 0.693520 -0.195090
v -0.653281 0.653282 -0.382683
v -0.587938 0.587938 -0.555570
v -0.500000 0.500000 -0.707107
v -0.392847 0.392848 -0.831470
v -0.270598 0.270598 -0.923880
v -0.137949 0.137950 -0.980785
v -0.074658 0.180240 0.980785
v -0.146446 0.353554 0.923880
v -0.212607 0.513280 0.831469
v -0.270598 0.653282 0.707107
v -0.318189 0.768178 0.555570
v -0.353553 0.853554 0.382683
v -0.375330 0.906128 0.195090
v -0.382683 0.923880 0.000000
v -0.375330 0.906128 -0.195090
v -0.353553 0.853554 -0.382683
v -0.318189 0.768178 -0.555570
v -0.270598 0.653282 -0.707107
v -0.212607 0.513280 -0.831470
v -0.146446 0.353554 -0.923880
v -0.074658 0.180240 -0.980785
v 0.000000 0.195091 0.980785
v 0.000000 0.382684 0.923880
v 0.000000 0.555570 0.831469
v 0.000000 0.707107 0.707107
v 0.000000 0.831470 0.555570
v 0.000000 0.923880 0.382683
v 0.000000 0.980785 0.195090
v 0.000000 1.000000 0.000000
v 0.000000 0.980785 -0.195090
v 0.000000 0.923880 -0.382683
v 0.000000 0.831470 -0.555570
v 0.000000 0.707107 -0.707107
v 0.000000 0.555570 -0.831470
v 0.000000 0.382684 -0.923880
v 0.000000 0.195090 -0.980785
v 0.074658 0.180240 0.980785
v 0.146447 0.353554 0.923880
v 0.212608 0.513280 0.831469
v 0.270598 0.653282 0.707107
v 0.318190 0.768178 0.555570
v 0.353554 0.853553 0.382683
v 0.375331 0.906128 0.195090
v 0.382684 0.923880 0.000000
v 0.375331 0.906128 -0.195090
v 0.353554 0.853553 -0.382683
v 0.318190 0.768178 -0.555570
v 0.270598 0.653282 -0.707107
v 0.212608 0.513280 -0.831470
v 0.146447 0.353554 -0.923880
v 0.074658 0.180240 -0.980785
v 0.137950 0.137950 0.980785
v 0.270599 0.270598 0.923880
v 0.392848 0.392848 0.831470
v 0.500000 0.500000 0.707107
v 0.587938 0.587938 0.555570
v 0.653282 0.653282 0.382683
v 0.693520 0.693520 0.195090
v 0.707107 0.707107 0.000000
v 0.693520 0.693520 -0.195090
v 0.653282 0.653281 -0.382683
v 0.587938 0.587938 -0.555570
v 0.500000 0.500000 -0.707107
v 0.392848 0.392848 -0.831470
v 0.270599 0.270598 -0.923880
v 0.137950 0.137950 -0.980785
v 0.180241 0.074658 0.980785
v 0.353554 0.146447 0.923880
v 0.513280 0.212608 0.831470
v 0.653282 0.270598 0.707107
v 0.768178 0.318190 0.555570
v 0.853554 0.353553 0.382683
v 0.906128 0.375330 0.195090
v 0.923880 0.382683 0.000000
v 0.906128 0.375330 -0.195090
v 0.853554 0.353553 -0.382683
v 0.768178 0.318190 -0.555570
v 0.653282 0.270598 -0.707107
v 0.513280 0.212608 -0.831470
v 0.353554 0.146447 -0.923880
v 0.180240 0.074658 -0.980785
v 0.195091 0.000000 0.980785
v 0.382684 0.000000 0.923880
v 0.555571 0.000000 0.831470
v 0.707107 0.000000 0.707107
v 0.831470 -0.000000 0.555570
v 0.923880 -0.000000 0.382683
v 0.980786 0.000000 0.195090
v 1.000000 -0.000000 0.000000
v 0.980786 -0.000000 -0.195090
v 0.923880 -0.000000 -0.382683
v 0.831470 -0.000000 -0.555570
v 0.707107 -0.000000 -0.707107
v 0.555571 -0.000000 -0.831470
v 0.382684 -0.000000 -0.923880
v 0.195091 -0.000000 -0.980785
v 0.180241 -0.074658 0.980785
v 0.353554 -0.146447 0.923880
v 0.513280 -0.212608 0.831470
v 0.653282 -0.270598 0.707107
v 0.768178 -0.318190 0.555570
v 0.853554 -0.353553 0.382683
v 0.906128 -0.375330 0.195090
v 0.923880 -0.382684 0.000000
v 0.906128 -0.375330 -0.195090
v 0.853554 -0.353554 -0.382683
v 0.768178 -0.318190 -0.555570
v 0.653282 -0.270598 -0.707107
v 0.513280 -0.212608 -0.831470
v 0.353554 -0.146447 -0.923880
v 0.180240 -0.074658 -0.980785
v 0.137950 -0.137950 0.980785
v 0.270599 -0.270598 0.923880
v 0.392848 -0.392848 0.831470
v 0.500000 -0.500000 0.707107
v 0.587938 -0.587938 0.555570
v 0.653282 -0.653282 0.382683
v 0.693520 -0.693520 0.195090
v 0.707107 -0.707107 0.000000
v 0.693520 -0.693520 -0.195090
v 0.653282 -0.653282 -0.382683
v 0.587938 -0.587938 -0.555570
v 0.500000 -0.500000 -0.707107
v 0.392848 -0.392848 -0.831470
v 0.270599 -0.270598 -0.923880
v 0.137950 -0.137950 -0.980785
v 0.074658 -0.180240 0.980785
v 0.146447 -0.353554 0.923880
v 0.212608 -0.513280 0.831470
v 0.270598 -0.653282 0.707107
v 0.318190 -0.768178 0.555570
v 0.353554 -0.853553 0.382683
v 0.375331 -0.906128 0.195090
v 0.382684 -0.923880 0.000000
v 0.375331 -0.906128 -0.195090
v 0.353554 -0.853553 -0.382683
v 0.318190 -0.768178 -0.555570
v 0.270598 -0.653282 -0.707107
v 0.212608 -0.513280 -0.831470
v 0.146447 -0.353554 -0.923880
v 0.074658 -0.180240 -0.980785
v 0.000000 -0.195090 0.980785
v 0.000000 -0.382684 0.923880
v 0.000000 -0.555570 0.831470
v 0.000000 -0.707107 0.707107
v 0.000000 -0.831469 0.555570
v 0.000000 -0.923880 0.382683
v 0.000000 -0.980785 0.195090
v 0.000000 -1.000000 0.000000
v 0.000000 -0.980785 -0.195090
v 0.000000 -0.923879 -0.382683
v 0.000000 -0.831470 -0.555570
v 0.000000 -0.707107 -0.707107
v 0.000000 -0.555570 -0.831470
v 0.000000 -0.382684 -0.923880
v 0.000000 -0.195090 -0.980785
v -0.074658 -0.180240 0.980785
v -0.146446 -0.353554 0.923880
v -0.212607 -0.513280 0.831470
v -0.270598 -0.653282 0.707107
v -0.318189 -0.768178 0.555570
v -0.353553 -0.853553 0.382683
v -0.375330 -0.906128 0.195090
v -0.382683 -0.923880 0.000000
v -0.375330 -0.906128 -0.195090
v -0.353553 -0.853553 -0.382683
v -0.318189 -0.768178 -0.555570
v -0.270598 -0.653282 -0.707107
v -0.212607 -0.513280 -0.831470
v -0.146446 -0.353554 -0.923880
v -0.074658 -0.180240 -0.980785
v 0.000000 -0.000000 1.000000
v -0.137950 -0.137950 0.980785
v -0.270598 -0.270598 0.923880
v -0.392847 -0.392848 0.831470
v -0.500000 -0.500000 0.707107
v -0.587938 -0.587938 0.555570
v -0.653281 -0.653281 0.382683
v -0.693520 -0.693520 0.195090
v -0.707107 -0.707107 0.000000
v -0.693520 -0.693520 -0.195090
v -0.653281 -0.653281 -0.382683
v -0.587938 -0.587938 -0.555570
v -0.500000 -0.500000 -0.707107
v -0.392847 -0.392848 -0.831470
v -0.270598 -0.270598 -0.923880
v -0.137949 -0.137950 -0.980785
v -0.180240 -0.074658 0.980785
v -0.353553 -0.146447 0.923880
v -0.513280 -0.212608 0.831470
v -0.653281 -0.270598 0.707107
v -0.768177 -0.318189 0.555570
v -0.853553 -0.353553 0.382683
v -0.906127 -0.375330 0.195090
v -0.923879 -0.382683 0.000000
v -0.906127 -0.375330 -0.195090
v -0.853553 -0.353553 -0.382683
v -0.768177 -0.318190 -0.555570
v -0.653281 -0.270598 -0.707107
v -0.513280 -0.212608 -0.831470
v -0.353553 -0.146447 -0.923880
v -0.180240 -0.074658 -0.980785

vn -0.713095 0.000000 -0.701041
vn -0.835139 0.000000 -0.550005
vn -0.771569 0.319590 -0.550005
vn -0.658803 0.272866 -0.701041
vn -0.925596 0.000000 0.378430
vn -0.835139 0.000000 0.550005
vn -0.771569 0.319590 0.550005
vn -0.855159 0.354198 0.378430
vn -0.563891 0.000000 -0.825831
vn -0.520981 0.215796 -0.825831
vn -0.981231 0.000000 0.192785
vn -0.906522 0.375500 0.192785
vn -0.393017 0.000000 -0.919523
vn -0.363109 0.150395 -0.919523
vn -1.000000 0.000000 0.000000
vn -0.923856 0.382672 0.000000
vn -0.393017 0.000000 0.919523
vn -0.206793 0.000000 0.978362
vn -0.191046 0.079134 0.978362
vn -0.363109 0.150395 0.919523
vn -0.206793 0.000000 -0.978362
vn -0.191046 0.079134 -0.978362
vn -0.981231 0.000000 -0.192785
vn -0.906522 0.375500 -0.192785
vn -0.563891 0.000000 0.825831
vn -0.520981 0.215796 0.825831
vn -0.925596 0.000000 -0.378430
vn -0.855159 0.354198 -0.378430
vn -0.713095 0.000000 0.701041
vn -0.658803 0.272866 0.701041
vn -0.693838 0.693838 0.192785
vn -0.707083 0.707083 0.000000
vn -0.146214 0.146214 0.978362
vn -0.277902 0.277902 0.919523
vn -0.277902 0.277902 -0.919523
vn -0.146214 0.146214 -0.978362
vn -0.693838 0.693838 -0.192785
vn -0.398724 0.398724 0.825831
vn -0.654500 0.654500 -0.378430
vn -0.504227 0.504227 0.701041
vn -0.590533 0.590533 -0.550005
vn -0.590533 0.590533 0.550005
vn -0.504227 0.504227 -0.701041
vn -0.654500 0.654500 0.378430
vn -0.398724 0.398724 -0.825831
vn -0.319590 0.771569 -0.550005
vn -0.272866 0.658803 -0.701041
vn -0.319590 0.771569 0.550005
vn -0.354198 0.855159 0.378430
vn -0.215796 0.520981 -0.825831
vn -0.375500 0.906522 0.192785
vn -0.150395 0.363109 -0.919523
vn -0.382672 0.923856 0.000000
vn -0.079134 0.191046 0.978362
vn -0.150395 0.363109 0.919523
vn -0.079134 0.191046 -0.978362
vn -0.375500 0.906522 -0.192785
vn -0.215796 0.520981 0.825831
vn -0.354198 0.855159 -0.378430
vn -0.272866 0.658803 0.701041
vn 0.000000 0.981231 -0.192785
vn 0.000000 0.925596 -0.378430
vn 0.000000 0.563891 0.825831
vn 0.000000 0.713095 0.701041
vn 0.000000 0.835139 -0.550005
vn 0.000000 0.835139 0.550005
vn 0.000000 0.713095 -0.701041
vn 0.000000 0.925596 0.378430
vn 0.000000 0.563891 -0.825831
vn 0.000000 0.981231 0.192785
vn 0.000000 0.393017 -0.919523
vn 0.000000 1.000000 0.000000
vn 0.000000 0.206793 0.978362
vn 0.000000 0.393017 0.919523
vn 0.000000 0.206793 -0.978362
vn 0.215796 0.520981 -0.825831
vn 0.150395 0.363109 -0.919523
vn 0.375500 0.906522 0.192785
vn 0.382672 0.923856 0.000000
vn 0.079134 0.191046 0.978362
vn 0.150395 0.363109 0.919523
vn 0.079134 0.191046 -0.978362
vn 0.375500 0.906522 -0.192785
vn 0.215796 0.520981 0.825831
vn 0.354198 0.855159 -0.378430
vn 0.272866 0.658803 0.701041
vn 0.319590 0.771569 -0.550005
vn 0.319590 0.771569 0.550005
vn 0.272866 0.658803 -0.701041
vn 0.354198 0.855159 0.378430
vn 0.590533 0.590533 -0.550005
vn 0.504227 0.504227 -0.701041
vn 0.590533 0.590533 0.550005
vn 0.654500 0.654500 0.378430
vn 0.398724 0.398724 -0.825831
vn 0.693838 0.693838 0.192785
vn 0.277902 0.277902 -0.919523
vn 0.707083 0.707083 0.000000
vn 0.146214 0.146214 0.978362
vn 0.277902 0.277902 0.919523
vn 0.146214 0.146214 -0.978362
vn 0.693838 0.693838 -0.192785
vn 0.398724 0.398724 0.825831
vn 0.654500 0.654500 -0.378430
vn 0.504227 0.504227 0.701041
vn 0.906522 0.375500 -0.192785
vn 0.855159 0.354198 -0.378430
vn 0.520981 0.215796 0.825831
vn 0.658803 0.272866 0.701041
vn 0.771569 0.319590 -0.550005
vn 0.771569 0.319590 0.550005
vn 0.658803 0.272866 -0.701041
vn 0.855159 0.354198 0.378430
vn 0.520981 0.215796 -0.825831
vn 0.906522 0.375500 0.192785
vn 0.363109 0.150395 -0.919523
vn 0.923856 0.382672 0.000000
vn 0.191046 0.079134 0.978362
vn 0.363109 0.150395 0.919523
vn 0.191046 0.079134 -0.978362
vn 0.563891 0.000000 -0.825831
vn 0.393017 0.000000 -0.919523
vn 0.981231 0.000000 0.192785
vn 1.000000 0.000000 0.000000
vn 0.206793 0.000000 0.978362
vn 0.393017 0.000000 0.919523
vn 0.206793 0.000000 -0.978362
vn 0.981231 0.000000 -0.192785
vn 0.563891 0.000000 0.825831
vn 0.925596 0.000000 -0.378430
vn 0.713095 0.000000 0.701041
vn 0.835139 0.000000 -0.550005
vn 0.835139 0.000000 0.550005
vn 0.713095 0.000000 -0.701041
vn 0.925596 0.000000 0.378430
vn 0.771569 -0.319590 -0.550005
vn 0.658803 -0.272866 -0.701041
vn 0.771569 -0.319590 0.550005
vn 0.855159 -0.354198 0.378430
vn 0.520981 -0.215796 -0.825831
vn 0.906522 -0.375500 0.192785
vn 0.363109 -0.150395 -0.919523
vn 0.923856 -0.382672 0.000000
vn 0.191046 -0.079134 0.978362
vn 0.363109 -0.150395 0.919523
vn 0.191046 -0.079134 -0.978362
vn 0.906522 -0.375500 -0.192785
vn 0.520981 -0.215796 0.825831
vn 0.855159 -0.354198 -0.378430
vn 0.658803 -0.272866 0.701041
vn 0.277902 -0.277902 0.919523
vn 0.398724 -0.398724 0.825831
vn 0.693838 -0.693838 -0.192785
vn 0.654500 -0.654500 -0.378430
vn 0.504227 -0.504227 0.701041
vn 0.590533 -0.590533 -0.550005
vn 0.590533 -0.590533 0.550005
vn 0.504227 -0.504227 -0.701041
vn 0.654500 -0.654500 0.378430
vn 0.398724 -0.398724 -0.825831
vn 0.693838 -0.693838 0.192785
vn 0.277902 -0.277902 -0.919523
vn 0.707083 -0.707083 0.000000
vn 0.146214 -0.146214 0.978362
vn 0.146214 -0.146214 -0.978362
vn 0.354198 -0.855159 0.378430
vn 0.375500 -0.906522 0.192785
vn 0.215796 -0.520981 -0.825831
vn 0.150395 -0.363109 -0.919523
vn 0.382672 -0.923856 0.000000
vn 0.079134 -0.191046 0.978362
vn 0.150395 -0.363109 0.919523
vn 0.079134 -0.191046 -0.978362
vn 0.375500 -0.906522 -0.192785
vn 0.215796 -0.520981 0.825831
vn 0.354198 -0.855159 -0.378430
vn 0.272866 -0.658803 0.701041
vn 0.319590 -0.771569 -0.550005
vn 0.319590 -0.771569 0.550005
vn 0.272866 -0.658803 -0.701041
vn 0.000000 -0.925596 -0.378430
vn 0.000000 -0.835139 -0.550005
vn 0.000000 -0.713095 0.701041
vn 0.000000 -0.835139 0.550005
vn 0.000000 -0.713095 -0.701041
vn 0.000000 -0.925596 0.378430
vn 0.000000 -0.563891 -0.825831
vn 0.000000 -0.981231 0.192785
vn 0.000000 -0.393017 -0.919523
vn 0.000000 -1.000000 0.000000
vn 0.000000 -0.206793 0.978362
vn 0.000000 -0.393017 0.919523
vn 0.000000 -0.206793 -0.978362
vn 0.000000 -0.981231 -0.192785
vn 0.000000 -0.563891 0.825831
vn -0.150395 -0.363109 -0.919523
vn -0.079134 -0.191046 -0.978362
vn -0.382672 -0.923856 0.000000
vn -0.375500 -0.906522 -0.192785
vn -0.150395 -0.363109 0.919523
vn -0.215796 -0.520981 0.825831
vn -0.354198 -0.855159 -0.378430
vn -0.272866 -0.658803 0.701041
vn -0.319590 -0.771569 -0.550005
vn -0.319590 -0.771569 0.550005
vn -0.272866 -0.658803 -0.701041
vn -0.354198 -0.855159 0.378430
vn -0.215796 -0.520981 -0.825831
vn -0.375500 -0.906522 0.192785
vn -0.079134 -0.191046 0.978362
vn -0.504227 -0.504227 -0.701041
vn -0.398724 -0.398724 -0.825831
vn -0.654500 -0.654500 0.378430
vn -0.693838 -0.693838 0.192785
vn -0.277902 -0.277902 -0.919523
vn -0.707083 -0.707083 0.000000
vn -0.146214 -0.146214 0.978362
vn -0.277902 -0.277902 0.919523
vn -0.146214 -0.146214 -0.978362
vn -0.693838 -0.693838 -0.192785
vn -0.398724 -0.398724 0.825831
vn -0.654500 -0.654500 -0.378430
vn -0.504227 -0.504227 0.701041
vn -0.590533 -0.590533 -0.550005
vn -0.590533 -0.590533 0.550005
vn -0.855159 -0.354198 -0.378430
vn -0.771569 -0.319590 -0.550005
vn -0.658803 -0.272866 0.701041
vn -0.771569 -0.319590 0.550005
vn -0.658803 -0.272866 -0.701041
vn -0.855159 -0.354198 0.378430
vn -0.520981 -0.215796 -0.825831
vn -0.906522 -0.375500 0.192785
vn -0.363109 -0.150395 -0.919523
vn -0.923856 -0.382672 0.000000
vn -0.191046 -0.079134 0.978362
vn -0.363109 -0.150395 0.919523
vn -0.191046 -0.079134 -0.978362
vn -0.906522 -0.375500 -0.192785
vn -0.520981 -0.215796 0.825831
vn 0.000000 0.000000 1.000000
vn 0.000000 0.000000 -0.999969

f 12//1 11//2 26//3 27//4
f 6//5 5//6 20//7 21//8
f 13//9 12//1 27//4 28//10
f 7//11 6//5 21//8 22//12
f 14//13 13//9 28//10 29//14
f 8//15 7//11 22//12 23//16
f 2//17 1//18 16//19 17//20
f 15//21 14//13 29//14 30//22
f 9//23 8//15 23//16 24//24
f 3//25 2//17 17//20 18//26
f 10//27 9//23 24//24 25//28
f 4//29 3//25 18//26 19//30
f 11//2 10//27 25//28 26//3
f 5//6 4//29 19//30 20//7
f 23//16 22//12 38//31 39//32
f 17//20 16//19 32//33 33//34
f 30//22 29//14 45//35 46//36
f 24//24 23//16 39//32 40//37
f 18//26 17//20 33//34 34//38
f 25//28 24//24 40//37 41//39
f 19//30 18//26 34//38 35//40
f 26//3 25//28 41//39 42//41
f 20//7 19//30 35//40 36//42
f 27//4 26//3 42//41 43//43
f 21//8 20//7 36//42 37//44
f 28//10 27//4 43//43 44//45
f 22//12 21//8 37//44 38//31
f 29//14 28//10 44//45 45//35
f 43//43 42//41 57//46 58//47
f 37//44 36//42 51//48 52//49
f 44//45 43//43 58//47 59//50
f 38//31 37//44 52//49 53//51
f 45//35 44//45 59//50 60//52
f 39//32 38//31 53//51 54//53
f 33//34 32//33 47//54 48//55
f 46//36 45//35 60//52 61//56
f 40//37 39//32 54//53 55//57
f 34//38 33//34 48//55 49//58
f 41//39 40//37 55//57 56//59
f 35//40 34//38 49//58 50//60
f 42//41 41//39 56//59 57//46
f 36//42 35//40 50//60 51//48
f 56//59 55//57 70//61 71//62
f 50//60 49//58 64//63 65//64
f 57//46 56//59 71//62 72//65
f 51//48 50//60 65//64 66//66
f 58//47 57//46 72//65 73//67
f 52//49 51//48 66//66 67//68
f 59//50 58//47 73//67 74//69
f 53//51 52//49 67//68 68//70
f 60//52 59//50 74//69 75//71
f 54//53 53//51 68//70 69//72
f 48//55 47//54 62//73 63//74
f 61//56 60//52 75//71 76//75
f 55//57 54//53 69//72 70//61
f 49//58 48//55 63//74 64//63
f 75//71 74//69 89//76 90//77
f 69//72 68//70 83//78 84//79
f 63//74 62//73 77//80 78//81
f 76//75 75//71 90//77 91//82
f 70//61 69//72 84//79 85//83
f 64//63 63//74 78//81 79//84
f 71//62 70//61 85//83 86//85
f 65//64 64//63 79//84 80//86
f 72//65 71//62 86//85 87//87
f 66//66 65//64 80//86 81//88
f 73//67 72//65 87//87 88//89
f 67//68 66//66 81//88 82//90
f 74//69 73//67 88//89 89//76
f 68//70 67//68 82//90 83//78
f 88//89 87//87 102//91 103//92
f 82//90 81//88 96//93 97//94
f 89//76 88//89 103//92 104//95
f 83//78 82//90 97//94 98//96
f 90//77 89//76 104//95 105//97
f 84//79 83//78 98//96 99//98
f 78//81 77//80 92//99 93//100
f 91//82 90//77 105//97 106//101
f 85//83 84//79 99//98 100//102
f 79//84 78//81 93//100 94//103
f 86//85 85//83 100//102 101//104
f 80//86 79//84 94//103 95//105
f 87//87 86//85 101//104 102//91
f 81//88 80//86 95//105 96//93
f 101//104 100//102 115//106 116//107
f 95//105 94//103 109//108 110//109
f 102//91 101//104 116//107 117//110
f 96//93 95//105 110//109 111//111
f 103//92 102//91 117//110 118//112
f 97//94 96//93 111//111 112//113
f 104//95 103//92 118//112 119//114
f 98//96 97//94 112//113 113//115
f 105//97 104//95 119//114 120//116
f 99//98 98//96 113//115 114//117
f 93//100 92//99 107//118 108//119
f 106//101 105//97 120//116 121//120
f 100//102 99//98 114//117 115//106
f 94//103 93//100 108//119 109//108
f 120//116 119//114 134//121 135//122
f 114//117 113//115 128//123 129//124
f 108//119 107//118 122//125 123//126
f 121//120 120//116 135//122 136//127
f 115//106 114//117 129//124 130//128
f 109//108 108//119 123//126 124//129
f 116//107 115//106 130//128 131//130
f 110//109 109//108 124//129 125//131
f 117//110 116//107 131//130 132//132
f 111//111 110//109 125//131 126//133
f 118//112 117//110 132//132 133//134
f 112//113 111//111 126//133 127//135
f 119//114 118//112 133//134 134//121
f 113//115 112//113 127//135 128//123
f 133//134 132//132 147//136 148//137
f 127//135 126//133 141//138 142//139
f 134//121 133//134 148//137 149//140
f 128//123 127//135 142//139 143//141
f 135//122 134//121 149//140 150//142
f 129//124 128//123 143//141 144//143
f 123//126 122//125 137//144 138//145
f 136//127 135//122 150//142 151//146
f 130//128 129//124 144//143 145//147
f 124//129 123//126 138//145 139//148
f 131//130 130//128 145//147 146//149
f 125//131 124//129 139//148 140//150
f 132//132 131//130 146//149 147//136
f 126//133 125//131 140//150 141//138
f 139//148 138//145 153//151 154//152
f 146//149 145//147 160//153 161//154
f 140//150 139//148 154//152 155//155
f 147//136 146//149 161//154 162//156
f 141//138 140//150 155//155 156//157
f 148//137 147//136 162//156 163//158
f 142//139 141//138 156//157 157//159
f 149//140 148//137 163//158 164//160
f 143//141 142//139 157//159 158//161
f 150//142 149//140 164//160 165//162
f 144//143 143//141 158//161 159//163
f 138//145 137//144 152//164 153//151
f 151//146 150//142 165//162 166//165
f 145//147 144//143 159//163 160//153
f 158//161 157//159 172//166 173//167
f 165//162 164//160 179//168 180//169
f 159//163 158//161 173//167 174//170
f 153//151 152//164 167//171 168//172
f 166//165 165//162 180//169 181//173
f 160//153 159//163 174//170 175//174
f 154//152 153//151 168//172 169//175
f 161//154 160//153 175//174 176//176
f 155//155 154//152 169//175 170//177
f 162//156 161//154 176//176 177//178
f 156//157 155//155 170//177 171//179
f 163//158 162//156 177//178 178//180
f 157//159 156//157 171//179 172//166
f 164//160 163//158 178//180 179//168
f 177//178 176//176 191//181 192//182
f 171//179 170//177 185//183 186//184
f 178//180 177//178 192//182 193//185
f 172//166 171//179 186//184 187//186
f 179//168 178//180 193//185 194//187
f 173//167 172//166 187//186 188//188
f 180//169 179//168 194//187 195//189
f 174//170 173//167 188//188 189//190
f 168//172 167//171 182//191 183//192
f 181//173 180//169 195//189 196//193
f 175//174 174//170 189//190 190//194
f 169//175 168//172 183//192 184//195
f 176//176 175//174 190//194 191//181
f 170//177 169//175 184//195 185//183
f 196//193 195//189 210//196 211//197
f 190//194 189//190 204//198 205//199
f 184//195 183//192 198//200 199//201
f 191//181 190//194 205//199 206//202
f 185//183 184//195 199//201 200//203
f 192//182 191//181 206//202 207//204
f 186//184 185//183 200//203 201//205
f 193//185 192//182 207//204 208//206
f 187//186 186//184 201//205 202//207
f 194//187 193//185 208//206 209//208
f 188//188 187//186 202//207 203//209
f 195//189 194//187 209//208 210//196
f 189//190 188//188 203//209 204//198
f 183//192 182//191 197//210 198//200
f 209//208 208//206 224//211 225//212
f 203//209 202//207 218//213 219//214
f 210//196 209//208 225//212 226//215
f 204//198 203//209 219//214 220//216
f 198//200 197//210 213//217 214//218
f 211//197 210//196 226//215 227//219
f 205//199 204//198 220//216 221//220
f 199//201 198//200 214//218 215//221
f 206//202 205//199 221//220 222//222
f 200//203 199//201 215//221 216//223
f 207//204 206//202 222//222 223//224
f 201//205 200//203 216//223 217//225
f 208//206 207//204 223//224 224//211
f 202//207 201//205 217//225 218//213
f 223//224 222//222 237//226 238//227
f 217//225 216//223 231//228 232//229
f 224//211 223//224 238//227 239//230
f 218//213 217//225 232//229 233//231
f 225//212 224//211 239//230 240//232
f 219//214 218//213 233//231 234//233
f 226//215 225//212 240//232 241//234
f 220//216 219//214 234//233 235//235
f 214//218 213//217 228//236 229//237
f 227//219 226//215 241//234 242//238
f 221//220 220//216 235//235 236//239
f 215//221 214//218 229//237 230//240
f 222//222 221//220 236//239 237//226
f 216//223 215//221 230//240 231//228
f 1//18 212//241 16//19
f 31//242 15//21 30//22
f 31//242 30//22 46//36
f 16//19 212//241 32//33
f 32//33 212//241 47//54
f 31//242 46//36 61//56
f 31//242 61//56 76//75
f 47//54 212//241 62//73
f 31//242 76//75 91//82
f 62//73 212//241 77//80
f 77//80 212//241 92//99
f 31//242 91//82 106//101
f 31//242 106//101 121//120
f 92//99 212//241 107//118
f 31//242 121//120 136//127
f 107//118 212//241 122//125
f 122//125 212//241 137//144
f 31//242 136//127 151//146
f 31//242 151//146 166//165
f 137//144 212//241 152//164
f 152//164 212//241 167//171
f 31//242 166//165 181//173
f 167//171 212//241 182//191
f 31//242 181//173 196//193
f 31//242 196//193 211//197
f 182//191 212//241 197//210
f 197//210 212//241 213//217
f 31//242 211//197 227//219
f 213//217 212//241 228//236
f 31//242 227//219 242//238
f 242//238 241//234 14//13 15//21
f 236//239 235//235 8//15 9//23
f 230//240 229//237 2//17 3//25
f 31//242 242//238 15//21
f 237//226 236//239 9//23 10//27
f 231//228 230//240 3//25 4//29
f 238//227 237//226 10//27 11//2
f 232//229 231//228 4//29 5//6
f 239//230 238//227 11//2 12//1
f 233//231 232//229 5//6 6//5
f 240//232 239//230 12//1 13//9
f 234//233 233//231 6//5 7//11
f 228//236 212//241 1//18
f 241//234 240//232 13//9 14//13
f 235//235 234//233 7//11 8//15
f 229//237 228//236 1//18 2//17
