v 2.000000 0.000000 0.000000
v 1.923880 0.000000 0.382683
v 1.707107 0.000000 0.707107
v 1.382683 0.000000 0.923880
v 1.000000 0.000000 1.000000
v 0.617317 0.000000 0.923880
v 0.292893 0.000000 0.707107
v 0.076120 0.000000 0.382683
v 0.000000 0.000000 0.000000
v 0.076120 -0.000000 -0.382683
v 0.292893 -0.000000 -0.707107
v 0.617317 -0.000000 -0.923880
v 1.000000 -0.000000 -1.000000
v 1.382683 -0.000000 -0.923880
v 1.707107 -0.000000 -0.707107
v 1.923880 -0.000000 -0.382683
v 1.847759 0.765367 -0.000000
v 1.777433 0.736237 0.382683
v 1.577161 0.653281 0.707107
v 1.277433 0.529130 0.923880
v 0.923880 0.382683 1.000000
v 0.570326 0.236237 0.923880
v 0.270598 0.112085 0.707107
v 0.070326 0.029130 0.382683
v 0.000000 0.000000 0.000000
v 0.070326 0.029130 -0.382683
v 0.270598 0.112085 -0.707107
v 0.570326 0.236237 -0.923880
v 0.923880 0.382683 -1.000000
v 1.277433 0.529130 -0.923880
v 1.577161 0.653281 -0.707107
v 1.777433 0.736237 -0.382683
v 1.414213 1.414214 -0.000000
v 1.360388 1.360388 0.382683
v 1.207107 1.207107 0.707107
v 0.977705 0.977705 0.923879
v 0.707107 0.707107 1.000000
v 0.436509 0.436509 0.923879
v 0.207107 0.207107 0.707107
v 0.053825 0.053825 0.382683
v 0.000000 0.000000 0.000000
v 0.053825 0.053825 -0.382683
v 0.207107 0.207107 -0.707107
v 0.436509 0.436509 -0.923880
v 0.707107 0.707107 -1.000000
v 0.977705 0.977705 -0.923880
v 1.207107 1.207107 -0.707107
v 1.360388 1.360388 -0.382684
v 0.765367 1.847759 -0.000000
v 0.736237 1.777433 0.382683
v 0.653282 1.577161 0.707107
v 0.529130 1.277433 0.923879
v 0.382684 0.923879 1.000000
v 0.236237 0.570326 0.923879
v 0.112085 0.270598 0.707107
v 0.029130 0.070326 0.382683
v 0.000000 0.000000 0.000000
v 0.029130 0.070326 -0.382683
v 0.112085 0.270598 -0.707107
v 0.236237 0.570326 -0.923879
v 0.382684 0.923879 -1.000000
v 0.529130 1.277433 -0.923880
v 0.653282 1.577161 -0.707107
v 0.736237 1.777433 -0.382684
v 0.000000 2.000000 -0.000000
v 0.000000 1.923880 0.382683
v 0.000000 1.707107 0.707107
v 0.000000 1.382684 0.923879
v 0.000000 1.000000 1.000000
v 0.000000 0.617317 0.923879
v 0.000000 0.292893 0.707107
v 0.000000 0.076120 0.382683
v 0.000000 0.000000 0.000000
v 0.000000 0.076120 -0.382683
v 0.000000 0.292893 -0.707107
v 0.000000 0.617317 -0.923880
v 0.000000 1.000000 -1.000000
v 0.000000 1.382683 -0.923880
v 0.000000 1.707107 -0.707107
v 0.000000 1.923880 -0.382684
v -0.765367 1.847759 -0.000000
v -0.736237 1.777433 0.382683
v -0.653282 1.577161 0.707107
v -0.529130 1.277433 0.923879
v -0.382684 0.923880 1.000000
v -0.236237 0.570326 0.923879
v -0.112085 0.270598 0.707107
v -0.029130 0.070326 0.382683
v 0.000000 0.000000 0.000000
v -0.029130 0.070326 -0.382683
v -0.112085 0.270598 -0.707107
v -0.236237 0.570326 -0.923880
v -0.382684 0.923879 -1.000000
v -0.529130 1.277433 -0.923880
v -0.653282 1.577161 -0.707107
v -0.736237 1.777433 -0.382684
v -1.414214 1.414213 -0.000000
v -1.360389 1.360388 0.382683
v -1.207107 1.207106 0.707107
v -0.977705 0.977705 0.923879
v -0.707107 0.707107 1.000000
v -0.436509 0.436509 0.923879
v -0.207107 0.207107 0.707107
v -0.053825 0.053825 0.382683
v 0.000000 0.000000 0.000000
v -0.053825 0.053825 -0.382683
v -0.207107 0.207107 -0.707107
v -0.436509 0.436509 -0.923880
v -0.707107 0.707107 -1.000000
v -0.977705 0.977704 -0.923880
v -1.207107 1.207106 -0.707107
v -1.360389 1.360388 -0.382683
v -1.847759 0.765367 -0.000000
v -1.777433 0.736237 0.382683
v -1.577161 0.653282 0.707107
v -1.277433 0.529130 0.923879
v -0.923879 0.382684 1.000000
v -0.570326 0.236237 0.923880
v -0.270598 0.112085 0.707107
v -0.070326 0.029130 0.382683
v 0.000000 0.000000 0.000000
v -0.070326 0.029130 -0.382683
v -0.270598 0.112085 -0.707107
v -0.570326 0.236237 -0.923880
v -0.923879 0.382683 -1.000000
v -1.277433 0.529130 -0.923880
v -1.577161 0.653282 -0.707107
v -1.777433 0.736237 -0.382683
v -2.000000 0.000000 -0.000000
v -1.923880 0.000000 0.382683
v -1.707107 0.000000 0.707107
v -1.382683 0.000000 0.923880
v -1.000000 0.000000 1.000000
v -0.617317 0.000000 0.923880
v -0.292893 0.000000 0.707107
v -0.076120 0.000000 0.382683
v 0.000000 0.000000 0.000000
v -0.076120 -0.000000 -0.382683
v -0.292893 -0.000000 -0.707107
v -0.617317 -0.000000 -0.923880
v -1.000000 0.000000 -1.000000
v -1.382683 0.000000 -0.923880
v -1.707107 0.000000 -0.707107
v -1.923880 0.000000 -0.382683
v -1.847759 -0.765366 0.000000
v -1.777433 -0.736236 0.382683
v -1.577161 -0.653281 0.707107
v -1.277433 -0.529129 0.923880
v -0.923880 -0.382683 1.000000
v -0.570326 -0.236237 0.923880
v -0.270598 -0.112085 0.707107
v -0.070326 -0.029130 0.382683
v 0.000000 0.000000 0.000000
v -0.070326 -0.029130 -0.382683
v -0.270598 -0.112085 -0.707107
v -0.570326 -0.236237 -0.923880
v -0.923880 -0.382683 -1.000000
v -1.277433 -0.529130 -0.923879
v -1.577161 -0.653281 -0.707107
v -1.777433 -0.736236 -0.382683
v -1.414214 -1.414213 0.000000
v -1.360389 -1.360388 0.382683
v -1.207107 -1.207106 0.707107
v -0.977705 -0.977704 0.923880
v -0.707107 -0.707107 1.000000
v -0.436509 -0.436509 0.923880
v -0.207107 -0.207107 0.707107
v -0.053825 -0.053825 0.382683
v 0.000000 0.000000 0.000000
v -0.053825 -0.053825 -0.382683
v -0.207107 -0.207107 -0.707107
v -0.436509 -0.436509 -0.923879
v -0.707107 -0.707107 -1.000000
v -0.977705 -0.977705 -0.923879
v -1.207107 -1.207106 -0.707107
v -1.360389 -1.360388 -0.382683
v -0.765367 -1.847759 0.000000
v -0.736237 -1.777433 0.382684
v -0.653282 -1.577161 0.707107
v -0.529130 -1.277433 0.923880
v -0.382684 -0.923879 1.000000
v -0.236237 -0.570326 0.923880
v -0.112085 -0.270598 0.707107
v -0.029130 -0.070326 0.382683
v 0.000000 0.000000 0.000000
v -0.029130 -0.070326 -0.382683
v -0.112085 -0.270598 -0.707107
v -0.236237 -0.570326 -0.923879
v -0.382684 -0.923880 -1.000000
v -0.529130 -1.277433 -0.923879
v -0.653282 -1.577161 -0.707107
v -0.736237 -1.777433 -0.382683
v 0.000000 -2.000000 0.000000
v 0.000000 -1.923880 0.382684
v 0.000000 -1.707107 0.707107
v 0.000000 -1.382683 0.923880
v 0.000000 -1.000000 1.000000
v 0.000000 -0.617317 0.923880
v 0.000000 -0.292893 0.707107
v 0.000000 -0.076120 0.382683
v 0.000000 0.000000 0.000000
v 0.000000 -0.076120 -0.382683
v 0.000000 -0.292893 -0.707107
v 0.000000 -0.617317 -0.923879
v 0.000000 -1.000000 -1.000000
v 0.000000 -1.382684 -0.923879
v 0.000000 -1.707107 -0.707107
v 0.000000 -1.923880 -0.382683
v 0.765367 -1.847759 0.000000
v 0.736237 -1.777433 0.382684
v 0.653282 -1.577161 0.707107
v 0.529130 -1.277433 0.923880
v 0.382684 -0.923879 1.000000
v 0.236237 -0.570326 0.923879
v 0.112085 -0.270598 0.707107
v 0.029130 -0.070326 0.382683
v 0.000000 0.000000 0.000000
v 0.029130 -0.070326 -0.382683
v 0.112085 -0.270598 -0.707107
v 0.236237 -0.570326 -0.923879
v 0.382684 -0.923879 -1.000000
v 0.529130 -1.277433 -0.923879
v 0.653282 -1.577161 -0.707107
v 0.736237 -1.777433 -0.382683
v 1.414213 -1.414214 0.000000
v 1.360387 -1.360389 0.382684
v 1.207106 -1.207108 0.707107
v 0.977704 -0.977705 0.923880
v 0.707106 -0.707107 1.000000
v 0.436509 -0.436509 0.923880
v 0.207107 -0.207107 0.707107
v 0.053825 -0.053825 0.382683
v 0.000000 0.000000 0.000000
v 0.053825 -0.053825 -0.382683
v 0.207107 -0.207107 -0.707107
v 0.436509 -0.436509 -0.923880
v 0.707106 -0.707107 -1.000000
v 0.977704 -0.977705 -0.923880
v 1.207106 -1.207108 -0.707107
v 1.360387 -1.360389 -0.382683
v 1.847759 -0.765368 0.000000
v 1.777433 -0.736238 0.382684
v 1.577161 -0.653282 0.707107
v 1.277433 -0.529130 0.923880
v 0.923879 -0.382684 1.000000
v 0.570326 -0.236237 0.923880
v 0.270598 -0.112085 0.707107
v 0.070326 -0.029130 0.382683
v 0.000000 0.000000 0.000000
v 0.070326 -0.029130 -0.382683
v 0.270598 -0.112086 -0.707107
v 0.570326 -0.236237 -0.923880
v 0.923879 -0.382684 -1.000000
v 1.277433 -0.529131 -0.923880
v 1.577161 -0.653282 -0.707107
v 1.777433 -0.736238 -0.382683

vn 1.000000 0.000000 0.000000
vn 0.923856 0.382672 0.000000
vn 0.856685 0.354839 0.374340
vn 0.927274 0.000000 0.374340
vn 0.664113 0.275094 0.695151
vn 0.718833 0.000000 0.695151
vn 0.372387 0.154241 0.915159
vn 0.403088 0.000000 0.915159
vn 0.022492 0.009308 0.999695
vn 0.024354 0.000000 0.999695
vn -0.333964 -0.138340 0.932340
vn -0.361492 0.000000 0.932340
vn -0.641652 -0.265755 0.719443
vn -0.694510 0.000000 0.719443
vn -0.850093 -0.352123 0.391522
vn -0.920164 0.000000 0.391522
vn -0.923856 -0.382672 0.000000
vn -1.000000 0.000000 0.000000
vn -0.850093 -0.352123 -0.391522
vn -0.920164 0.000000 -0.391522
vn -0.641652 -0.265755 -0.719443
vn -0.694510 0.000000 -0.719443
vn -0.333964 -0.138340 -0.932340
vn -0.361492 0.000000 -0.932340
vn 0.022492 0.009308 -0.999695
vn 0.024354 0.000000 -0.999695
vn 0.372387 0.154241 -0.915159
vn 0.403088 0.000000 -0.915159
vn 0.664113 0.275094 -0.695151
vn 0.718833 0.000000 -0.695151
vn 0.856685 0.354839 -0.374340
vn 0.927274 0.000000 -0.374340
vn 0.707083 0.707083 0.000000
vn 0.655660 0.655660 0.374340
vn 0.508286 0.508286 0.695151
vn 0.285012 0.285012 0.915159
vn 0.017212 0.017212 0.999695
vn -0.255623 -0.255623 0.932340
vn -0.491104 -0.491104 0.719443
vn -0.650655 -0.650624 0.391522
vn -0.707083 -0.707083 0.000000
vn -0.650655 -0.650655 -0.391522
vn -0.491104 -0.491104 -0.719443
vn -0.255623 -0.255623 -0.932340
vn 0.017212 0.017212 -0.999695
vn 0.285012 0.285012 -0.915159
vn 0.508286 0.508286 -0.695151
vn 0.655660 0.655660 -0.374340
vn 0.382672 0.923856 0.000000
vn 0.354839 0.856685 0.374340
vn 0.275094 0.664113 0.695151
vn 0.154241 0.372387 0.915159
vn 0.009308 0.022492 0.999695
vn -0.138340 -0.333964 0.932340
vn -0.265755 -0.641652 0.719443
vn -0.352123 -0.850093 0.391522
vn -0.382672 -0.923856 0.000000
vn -0.352123 -0.850093 -0.391522
vn -0.265755 -0.641652 -0.719443
vn -0.138340 -0.333964 -0.932340
vn 0.009308 0.022492 -0.999695
vn 0.154241 0.372387 -0.915159
vn 0.275094 0.664113 -0.695151
vn 0.354839 0.856685 -0.374340
vn 0.000000 1.000000 0.000000
vn 0.000000 0.927274 0.374340
vn 0.000000 0.718833 0.695151
vn 0.000000 0.403088 0.915159
vn 0.000000 0.024354 0.999695
vn 0.000000 -0.361492 0.932340
vn 0.000000 -0.694510 0.719443
vn 0.000000 -0.920164 0.391522
vn 0.000000 -1.000000 0.000000
vn 0.000000 -0.920164 -0.391522
vn 0.000000 -0.694510 -0.719443
vn 0.000000 -0.361492 -0.932340
vn 0.000000 0.024354 -0.999695
vn 0.000000 0.403088 -0.915159
vn 0.000000 0.718833 -0.695151
vn 0.000000 0.927274 -0.374340
vn -0.382672 0.923856 0.000000
vn -0.354839 0.856685 0.374340
vn -0.275094 0.664113 0.695151
vn -0.154241 0.372387 0.915159
vn -0.009308 0.022492 0.999695
vn 0.138340 -0.333964 0.932340
vn 0.265755 -0.641652 0.719443
vn 0.352123 -0.850093 0.391522
vn 0.382672 -0.923856 0.000000
vn 0.352123 -0.850093 -0.391522
vn 0.265755 -0.641652 -0.719443
vn 0.138340 -0.333964 -0.932340
vn -0.009308 0.022492 -0.999695
vn -0.154241 0.372387 -0.915159
vn -0.275094 0.664113 -0.695151
vn -0.354839 0.856685 -0.374340
vn -0.707083 0.707083 0.000000
vn -0.655660 0.655660 0.374340
vn -0.508286 0.508286 0.695151
vn -0.285012 0.285012 0.915159
vn -0.017212 0.017212 0.999695
vn 0.255623 -0.255623 0.932340
vn 0.491104 -0.491104 0.719443
vn 0.650624 -0.650655 0.391522
vn 0.707083 -0.707083 0.000000
vn 0.650655 -0.650655 -0.391522
vn 0.491104 -0.491104 -0.719443
vn 0.255623 -0.255623 -0.932340
vn -0.017212 0.017212 -0.999695
vn -0.285012 0.285012 -0.915159
vn -0.508286 0.508286 -0.695151
vn -0.655660 0.655660 -0.374340
vn -0.923856 0.382672 0.000000
vn -0.856685 0.354839 0.374340
vn -0.664113 0.275094 0.695151
vn -0.372387 0.154241 0.915159
vn -0.022492 0.009308 0.999695
vn 0.333964 -0.138340 0.932340
vn 0.641652 -0.265755 0.719443
vn 0.850093 -0.352123 0.391522
vn 0.923856 -0.382672 0.000000
vn 0.850093 -0.352123 -0.391522
vn 0.641652 -0.265755 -0.719443
vn 0.333964 -0.138340 -0.932340
vn -0.022492 0.009308 -0.999695
vn -0.372387 0.154241 -0.915159
vn -0.664113 0.275094 -0.695151
vn -0.856685 0.354839 -0.374340
vn -0.927274 0.000000 0.374340
vn -0.718833 0.000000 0.695151
vn -0.403088 0.000000 0.915159
vn -0.024354 0.000000 0.999695
vn 0.361492 0.000000 0.932340
vn 0.694510 0.000000 0.719443
vn 0.920164 0.000000 0.391522
vn 0.920164 0.000000 -0.391522
vn 0.694510 0.000000 -0.719443
vn 0.361492 0.000000 -0.932340
vn -0.024354 0.000000 -0.999695
vn -0.403088 0.000000 -0.915159
vn -0.718833 0.000000 -0.695151
vn -0.927274 0.000000 -0.374340
vn -0.856685 -0.354839 0.374340
vn -0.664113 -0.275094 0.695151
vn -0.372387 -0.154241 0.915159
vn -0.022492 -0.009308 0.999695
vn 0.333964 0.138340 0.932340
vn 0.641652 0.265755 0.719443
vn 0.850093 0.352123 0.391522
vn 0.850093 0.352123 -0.391522
vn 0.641652 0.265755 -0.719443
vn 0.333964 0.138340 -0.932340
vn -0.022492 -0.009308 -0.999695
vn -0.372387 -0.154241 -0.915159
vn -0.664113 -0.275094 -0.695151
vn -0.856685 -0.354839 -0.374340
vn -0.655660 -0.655660 0.374340
vn -0.508286 -0.508286 0.695151
vn -0.285012 -0.285012 0.915159
vn -0.017212 -0.017212 0.999695
vn 0.255623 0.255623 0.932340
vn 0.491104 0.491104 0.719443
vn 0.650624 0.650655 0.391522
vn 0.650624 0.650655 -0.391522
vn 0.491104 0.491104 -0.719443
vn 0.255623 0.255623 -0.932340
vn -0.017212 -0.017212 -0.999695
vn -0.285012 -0.285012 -0.915159
vn -0.508286 -0.508286 -0.695151
vn -0.655660 -0.655660 -0.374340
vn -0.354839 -0.856685 0.374340
vn -0.275094 -0.664113 0.695151
vn -0.154241 -0.372387 0.915159
vn -0.009308 -0.022492 0.999695
vn 0.138340 0.333964 0.932340
vn 0.265755 0.641652 0.719443
vn 0.352123 0.850093 0.391522
vn 0.352123 0.850093 -0.391522
vn 0.265755 0.641652 -0.719443
vn 0.138340 0.333964 -0.932340
vn -0.009308 -0.022492 -0.999695
vn -0.154241 -0.372387 -0.915159
vn -0.275094 -0.664113 -0.695151
vn -0.354839 -0.856685 -0.374340
vn 0.000000 -0.927274 0.374340
vn 0.000000 -0.718833 0.695151
vn 0.000000 -0.403088 0.915159
vn 0.000000 -0.024354 0.999695
vn 0.000000 0.361492 0.932340
vn 0.000000 0.694510 0.719443
vn 0.000000 0.920164 0.391522
vn 0.000000 0.920164 -0.391522
vn 0.000000 0.694510 -0.719443
vn 0.000000 0.361492 -0.932340
vn 0.000000 -0.024354 -0.999695
vn 0.000000 -0.403088 -0.915159
vn 0.000000 -0.718833 -0.695151
vn 0.000000 -0.927274 -0.374340
vn 0.354839 -0.856685 0.374340
vn 0.275094 -0.664113 0.695151
vn 0.154241 -0.372387 0.915159
vn 0.009308 -0.022492 0.999695
vn -0.138340 0.333964 0.932340
vn -0.265755 0.641652 0.719443
vn -0.352123 0.850093 0.391522
vn -0.352123 0.850093 -0.391522
vn -0.265755 0.641652 -0.719443
vn -0.138340 0.333964 -0.932340
vn 0.009308 -0.022492 -0.999695
vn 0.154241 -0.372387 -0.915159
vn 0.275094 -0.664113 -0.695151
vn 0.354839 -0.856685 -0.374340
vn 0.655660 -0.655660 0.374340
vn 0.508286 -0.508286 0.695151
vn 0.285012 -0.285012 0.915159
vn 0.017212 -0.017212 0.999695
vn -0.255623 0.255623 0.932340
vn -0.491104 0.491104 0.719443
vn -0.650624 0.650655 0.391522
vn -0.650624 0.650655 -0.391522
vn -0.491104 0.491104 -0.719443
vn -0.255623 0.255623 -0.932340
vn 0.017212 -0.017212 -0.999695
vn 0.285012 -0.285012 -0.915159
vn 0.508286 -0.508286 -0.695151
vn 0.655660 -0.655660 -0.374340
vn 0.856685 -0.354839 0.374340
vn 0.664113 -0.275094 0.695151
vn 0.372387 -0.154241 0.915159
vn 0.022492 -0.009308 0.999695
vn -0.333964 0.138340 0.932340
vn -0.641652 0.265755 0.719443
vn -0.850093 0.352123 0.391522
vn -0.850093 0.352123 -0.391522
vn -0.641652 0.265755 -0.719443
vn -0.333964 0.138340 -0.932340
vn 0.022492 -0.009308 -0.999695
vn 0.372387 -0.154241 -0.915159
vn 0.664113 -0.275094 -0.695151
vn 0.856685 -0.354839 -0.374340

f 1//1 17//2 18//3 2//4
f 2//4 18//3 19//5 3//6
f 3//6 19//5 20//7 4//8
f 4//8 20//7 21//9 5//10
f 5//10 21//9 22//11 6//12
f 6//12 22//11 23//13 7//14
f 7//14 23//13 24//15 8//16
f 8//16 24//15 25//17 9//18
f 9//18 25//17 26//19 10//20
f 10//20 26//19 27//21 11//22
f 11//22 27//21 28//23 12//24
f 12//24 28//23 29//25 13//26
f 13//26 29//25 30//27 14//28
f 14//28 30//27 31//29 15//30
f 15//30 31//29 32//31 16//32
f 1//1 16//32 32//31 17//2
f 17//2 33//33 34//34 18//3
f 18//3 34//34 35//35 19//5
f 19//5 35//35 36//36 20//7
f 20//7 36//36 37//37 21//9
f 21//9 37//37 38//38 22//11
f 22//11 38//38 39//39 23//13
f 23//13 39//39 40//40 24//15
f 24//15 40//40 41//41 25//17
f 25//17 41//41 42//42 26//19
f 26//19 42//42 43//43 27//21
f 27//21 43//43 44//44 28//23
f 28//23 44//44 45//45 29//25
f 29//25 45//45 46//46 30//27
f 30//27 46//46 47//47 31//29
f 31//29 47//47 48//48 32//31
f 32//31 48//48 33//33 17//2
f 33//33 49//49 50//50 34//34
f 34//34 50//50 51//51 35//35
f 35//35 51//51 52//52 36//36
f 36//36 52//52 53//53 37//37
f 37//37 53//53 54//54 38//38
f 38//38 54//54 55//55 39//39
f 39//39 55//55 56//56 40//40
f 40//40 56//56 57//57 41//41
f 41//41 57//57 58//58 42//42
f 42//42 58//58 59//59 43//43
f 43//43 59//59 60//60 44//44
f 44//44 60//60 61//61 45//45
f 45//45 61//61 62//62 46//46
f 46//46 62//62 63//63 47//47
f 47//47 63//63 64//64 48//48
f 48//48 64//64 49//49 33//33
f 49//49 65//65 66//66 50//50
f 50//50 66//66 67//67 51//51
f 51//51 67//67 68//68 52//52
f 52//52 68//68 69//69 53//53
f 53//53 69//69 70//70 54//54
f 54//54 70//70 71//71 55//55
f 55//55 71//71 72//72 56//56
f 56//56 72//72 73//73 57//57
f 57//57 73//73 74//74 58//58
f 58//58 74//74 75//75 59//59
f 59//59 75//75 76//76 60//60
f 60//60 76//76 77//77 61//61
f 61//61 77//77 78//78 62//62
f 62//62 78//78 79//79 63//63
f 63//63 79//79 80//80 64//64
f 64//64 80//80 65//65 49//49
f 65//65 81//81 82//82 66//66
f 66//66 82//82 83//83 67//67
f 67//67 83//83 84//84 68//68
f 68//68 84//84 85//85 69//69
f 69//69 85//85 86//86 70//70
f 70//70 86//86 87//87 71//71
f 71//71 87//87 88//88 72//72
f 72//72 88//88 89//89 73//73
f 73//73 89//89 90//90 74//74
f 74//74 90//90 91//91 75//75
f 75//75 91//91 92//92 76//76
f 76//76 92//92 93//93 77//77
f 77//77 93//93 94//94 78//78
f 78//78 94//94 95//95 79//79
f 79//79 95//95 96//96 80//80
f 80//80 96//96 81//81 65//65
f 81//81 97//97 98//98 82//82
f 82//82 98//98 99//99 83//83
f 83//83 99//99 100//100 84//84
f 84//84 100//100 101//101 85//85
f 85//85 101//101 102//102 86//86
f 86//86 102//102 103//103 87//87
f 87//87 103//103 104//104 88//88
f 88//88 104//104 105//105 89//89
f 89//89 105//105 106//106 90//90
f 90//90 106//106 107//107 91//91
f 91//91 107//107 108//108 92//92
f 92//92 108//108 109//109 93//93
f 93//93 109//109 110//110 94//94
f 94//94 110//110 111//111 95//95
f 95//95 111//111 112//112 96//96
f 96//96 112//112 97//97 81//81
f 97//97 113//113 114//114 98//98
f 98//98 114//114 115//115 99//99
f 99//99 115//115 116//116 100//100
f 100//100 116//116 117//117 101//101
f 101//101 117//117 118//118 102//102
f 102//102 118//118 119//119 103//103
f 103//103 119//119 120//120 104//104
f 104//104 120//120 121//121 105//105
f 105//105 121//121 122//122 106//106
f 106//106 122//122 123//123 107//107
f 107//107 123//123 124//124 108//108
f 108//108 124//124 125//125 109//109
f 109//109 125//125 126//126 110//110
f 110//110 126//126 127//127 111//111
f 111//111 127//127 128//128 112//112
f 112//112 128//128 113//113 97//97
f 113//113 129//18 130//129 114//114
f 114//114 130//129 131//130 115//115
f 115//115 131//130 132//131 116//116
f 116//116 132//131 133//132 117//117
f 117//117 133//132 134//133 118//118
f 118//118 134//133 135//134 119//119
f 119//119 135//134 136//135 120//120
f 120//120 136//135 137//1 121//121
f 121//121 137//1 138//136 122//122
f 122//122 138//136 139//137 123//123
f 123//123 139//137 140//138 124//124
f 124//124 140//138 141//139 125//125
f 125//125 141//139 142//140 126//126
f 126//126 142//140 143//141 127//127
f 127//127 143//141 144//142 128//128
f 128//128 144//142 129//18 113//113
f 129//18 145//17 146//143 130//129
f 130//129 146//143 147//144 131//130
f 131//130 147//144 148//145 132//131
f 132//131 148//145 149//146 133//132
f 133//132 149//146 150//147 134//133
f 134//133 150//147 151//148 135//134
f 135//134 151//148 152//149 136//135
f 136//135 152//149 153//2 137//1
f 137//1 153//2 154//150 138//136
f 138//136 154//150 155//151 139//137
f 139//137 155//151 156//152 140//138
f 140//138 156//152 157//153 141//139
f 141//139 157//153 158//154 142//140
f 142//140 158//154 159//155 143//141
f 143//141 159//155 160//156 144//142
f 144//142 160//156 145//17 129//18
f 145//17 161//41 162//157 146//143
f 146//143 162//157 163//158 147//144
f 147//144 163//158 164//159 148//145
f 148//145 164//159 165//160 149//146
f 149//146 165//160 166//161 150//147
f 150//147 166//161 167//162 151//148
f 151//148 167//162 168//163 152//149
f 152//149 168//163 169//33 153//2
f 153//2 169//33 170//164 154//150
f 154//150 170//164 171//165 155//151
f 155//151 171//165 172//166 156//152
f 156//152 172//166 173//167 157//153
f 157//153 173//167 174//168 158//154
f 158//154 174//168 175//169 159//155
f 159//155 175//169 176//170 160//156
f 160//156 176//170 161//41 145//17
f 161//41 177//57 178//171 162//157
f 162//157 178//171 179//172 163//158
f 163//158 179//172 180//173 164//159
f 164//159 180//173 181//174 165//160
f 165//160 181//174 182//175 166//161
f 166//161 182//175 183//176 167//162
f 167//162 183//176 184//177 168//163
f 168//163 184//177 185//49 169//33
f 169//33 185//49 186//178 170//164
f 170//164 186//178 187//179 171//165
f 171//165 187//179 188//180 172//166
f 172//166 188//180 189//181 173//167
f 173//167 189//181 190//182 174//168
f 174//168 190//182 191//183 175//169
f 175//169 191//183 192//184 176//170
f 176//170 192//184 177//57 161//41
f 177//57 193//73 194//185 178//171
f 178//171 194//185 195//186 179//172
f 179//172 195//186 196//187 180//173
f 180//173 196//187 197//188 181//174
f 181//174 197//188 198//189 182//175
f 182//175 198//189 199//190 183//176
f 183//176 199//190 200//191 184//177
f 184//177 200//191 201//65 185//49
f 185//49 201//65 202//192 186//178
f 186//178 202//192 203//193 187//179
f 187//179 203//193 204//194 188//180
f 188//180 204//194 205//195 189//181
f 189//181 205//195 206//196 190//182
f 190//182 206//196 207//197 191//183
f 191//183 207//197 208//198 192//184
f 192//184 208//198 193//73 177//57
f 193//73 209//89 210//199 194//185
f 194//185 210//199 211//200 195//186
f 195//186 211//200 212//201 196//187
f 196//187 212//201 213//202 197//188
f 197//188 213//202 214//203 198//189
f 198//189 214//203 215//204 199//190
f 199//190 215//204 216//205 200//191
f 200//191 216//205 217//81 201//65
f 201//65 217//81 218//206 202//192
f 202//192 218//206 219//207 203//193
f 203//193 219//207 220//208 204//194
f 204//194 220//208 221//209 205//195
f 205//195 221//209 222//210 206//196
f 206//196 222//210 223//211 207//197
f 207//197 223//211 224//212 208//198
f 208//198 224//212 209//89 193//73
f 209//89 225//105 226//213 210//199
f 210//199 226//213 227//214 211//200
f 211//200 227//214 228//215 212//201
f 212//201 228//215 229//216 213//202
f 213//202 229//216 230//217 214//203
f 214//203 230//217 231//218 215//204
f 215//204 231//218 232//219 216//205
f 216//205 232//219 233//97 217//81
f 217//81 233//97 234//220 218//206
f 218//206 234//220 235//221 219//207
f 219//207 235//221 236//222 220//208
f 220//208 236//222 237//223 221//209
f 221//209 237//223 238//224 222//210
f 222//210 238//224 239//225 223//211
f 223//211 239//225 240//226 224//212
f 224//212 240//226 225//105 209//89
f 225//105 241//121 242//227 226//213
f 226//213 242//227 243//228 227//214
f 227//214 243//228 244//229 228//215
f 228//215 244//229 245//230 229//216
f 229//216 245//230 246//231 230//217
f 230//217 246//231 247//232 231//218
f 231//218 247//232 248//233 232//219
f 232//219 248//233 249//113 233//97
f 233//97 249//113 250//234 234//220
f 234//220 250//234 251//235 235//221
f 235//221 251//235 252//236 236//222
f 236//222 252//236 253//237 237//223
f 237//223 253//237 254//238 238//224
f 238//224 254//238 255//239 239//225
f 239//225 255//239 256//240 240//226
f 240//226 256//240 241//121 225//105
f 241//121 1//1 2//4 242//227
f 242//227 2//4 3//6 243//228
f 243//228 3//6 4//8 244//229
f 244//229 4//8 5//10 245//230
f 245//230 5//10 6//12 246//231
f 246//231 6//12 7//14 247//232
f 247//232 7//14 8//16 248//233
f 248//233 8//16 9//18 249//113
f 249//113 9//18 10//20 250//234
f 250//234 10//20 11//22 251//235
f 251//235 11//22 12//24 252//236
f 252//236 12//24 13//26 253//237
f 253//237 13//26 14//28 254//238
f 254//238 14//28 15//30 255//239
f 255//239 15//30 16//32 256//240
f 256//240 16//32 1//1 241//121
